<svg version="1.0" xmlns="http://www.w3.org/2000/svg" width="346.667" height="346.667" viewBox="0 0 260 260"><path d="M177 89.1c-3.4.8-6.6 1.4-13.9 2.5-1.8.3-4.1.7-5 .9-13.9 2.6-20.1 3.8-22.6 4.1-1.6.2-4.1.6-5.5.9-1.4.3-5.2 1-8.5 1.5s-6.9 1.2-8 1.4c-1.1.2-4 .7-6.5 1.1-2.5.4-5.4.9-6.5 1.2-1.1.2-3.1.6-4.5.8-2.7.4-3.2.5-20.5 3.5-6.6 1.2-13.3 2.3-15 2.6-1.6.3-3.7.7-4.5.9-.8.2-3.5.7-6 1-2.5.4-6.4 1.1-8.8 1.6-2.3.5-5.9 1.2-8 1.5-6.5.9-8.2 1.3-10 1.8-1.6.6-1.8 2.6-1.7 27.6v27h131.1l1.6-4.8c.9-2.6 4.6-12.8 8.3-22.7 3.7-9.9 8.4-22.7 10.5-28.5 2.1-5.8 5.2-14.1 6.8-18.6 3.2-8.5 3.2-8.6-2.8-7.3zm-4.3 10.4c-.6 1.9-1.3 3.5-1.6 3.5-.4 0-.8 1.2-.9 2.7-.1 1.5-.7 3-1.3 3.3-.5.4-.9 1.1-.8 1.6.1.5-.1 1.6-.4 2.4-1 2.3-12.8 34.4-13.1 35.5-.2.5-.8 2.1-1.3 3.5-.6 1.4-1.9 4.9-2.9 7.7-1.1 3.1-2.5 5.3-3.4 5.4-5.9.4-118.3.3-118.9-.1-1.1-.7-1-42.9 0-43.6.5-.3 2.1-.7 3.6-.9 2.9-.3 5.4-.8 15.8-2.6 3.3-.6 7.1-1.3 8.5-1.5 1.4-.3 4.9-.9 7.8-1.5 2.9-.6 6.5-1.2 8-1.4 1.5-.3 3.8-.7 5.2-1 1.4-.3 4.1-.8 6-1 1.9-.3 4.6-.7 6-1 1.3-.2 4.2-.7 6.5-1.1 2.2-.3 5.8-.9 8.1-1.4 2.2-.5 5.8-1.2 8-1.5 2.1-.2 4.9-.7 6-.9 2.8-.6 9.4-1.7 11.9-2.1 1.1-.1 2-.4 2-.5 0-.1 1.1-.3 2.5-.4 1.4-.2 3.6-.5 5-.9 2.6-.7 7-1.4 13-2.2 1.9-.3 4.4-.7 5.6-1 1.2-.2 3.9-.7 6-1.1 2.1-.3 4.1-.8 4.3-1 .2-.2 1.7-.4 3.2-.4 2.6 0 2.7.1 1.6 3.5z"/><path d="M79.7 129.3c-5 1.2-8.9 6.2-8.7 11.4.1 6.2.3 7.3 1.2 7.3.4 0 .8.6.8 1.4 0 .8 2.1 2.4 4.6 3.6 3.6 1.8 5.6 2.1 9.5 1.7 2.7-.3 5.4-.9 5.9-1.2.6-.3 1-3.5 1-7.1 0-5.4-.3-6.4-1.7-6.5-1 0-3.3-.1-5.1-.2-1.7-.1-3.3.1-3.3.5-.6 3.4-.2 4.3 1.8 4.2 1.3 0 2.4.7 2.6 1.8.8 2.8-3.1 4.5-6.4 2.7-5.5-2.9-6.5-8.4-2.3-12.5 2.2-2.3 3.1-2.5 7.4-2 4.4.5 4.9.4 5.5-1.5.7-2.2-.6-3.7-3.5-4-.8-.1-2.4-.2-3.5-.3-1.1-.2-3.7.2-5.8.7zm-44.5 12.4.3 12.7 7.8.1c4.7.1 7.7-.3 7.8-.9 0-.6.2-1.9.4-2.9.2-1.2-.3-1.7-1.8-1.8-9-.4-8.2.3-8.3-6.9-.4-14.1-.1-13-3.4-13h-3.1l.3 12.7zm22.7-12c-.4 3.4 0 23.5.5 24 .4.4 1.8.8 3.1.9l2.5.1V129h-3c-1.6 0-3 .3-3.1.7zm43.9 7.4c-.2 4.5 0 8.6.4 9.2.4.6.3 1.8-.2 2.6-1.3 2.7.6 6.1 3.2 5.8 2-.3 2.3-1.1 2.6-5.5.3-4.9 1-5.8 3.7-5.2.6.1 2.1.3 3.5.4 2.2.1 2.6.6 3 5.1.4 4.3.8 5 2.7 5 1.2 0 2.4-.3 2.8-.6.3-.4.7-6 .7-12.5l.2-11.9-3.2-.3c-3.1-.3-3.2-.2-3.2 3.7 0 5.2-.9 5.7-8.5 5.2-1.1-.1-1.5-1.3-1.5-4.6 0-4.3-.1-4.5-2.9-4.5h-2.9l-.4 8.1zm28.4-5.4c.2 2.4.8 2.8 3.3 2.8l3 .1.1 9.2c0 5 .3 9.5.7 9.9.5.4 1.9.8 3.2.9 2.5.1 2.5.1 2.5-9.8 0-7.1.3-9.8 1.3-9.9.6-.1 1.7-.2 2.2-.4.6-.1 1.6-.3 2.3-.3.6-.1 1.2-1.3 1.2-2.7V129h-20.1l.3 2.7zm46.9-1.8c-.5.9-1.6 4.1-2.6 7.1s-2.5 7.1-3.3 9c-.9 1.9-1.7 3.9-1.8 4.5-.1.5-.3 1.4-.5 2-.2.5.1 1.2.6 1.4.6.2 1.7-1.2 2.7-3 1.5-3.3 1.9-3.4 6.5-3.3 2.6.1 5.3.2 6 .3.6.1 1.4 1.4 1.8 3.1.4 2 1.3 3 2.4 3 1.6 0 1.5-.9-1.4-8.3-1.7-4.5-3.9-10.3-4.9-12.8-1.7-4.7-4-5.9-5.5-3zm5 9.3c1.1 2.9 1.9 5.4 1.9 5.5 0 .2-2 .3-4.5.3-4.9 0-5.2-.4-3.1-5.5.8-1.8 1.2-3.6.8-3.9-.3-.3 0-.6.7-.6.8 0 1.1-.7.6-1.8-.5-1.3-.4-1.4.6-.5.6.7 2 3.6 3 6.5zm14.8-10.3c-.1.3-.2 6.1-.3 12.8-.1 9.1.2 12.4 1.1 12.8 1.4.5 1.5.2 1.7-6.5.1-4.4.1-4.4 3.6-4.5 3.3 0 3.7.4 6.3 5.7 1.9 4 3.2 5.6 4.2 5.2 1.2-.5 1-1.5-1.1-5.7-2.2-4.3-2.4-5.2-1.2-6.1 4.2-3.1 4.8-8.4 1.4-11.7-2-2-3.6-2.4-9-2.5-3.6-.1-6.7.1-6.7.5zm13.4 3.5c.9.7 1.7 2.3 1.7 3.6 0 3.2-2.8 4.9-8.2 5h-4.7l.3-4.8c.2-2.6.4-4.8.5-5 .4-.8 8.9.1 10.4 1.2zm9.9-3.7c-2.4.9-.1 2.3 3.7 2.3h3.7l-.1 11.6c-.1 10.3.5 13.7 2.1 12.1.3-.3.6-5.7.6-12.1l.1-11.6h3.8c2.5 0 3.9-.5 3.9-1.3 0-1-2.2-1.3-8.2-1.3-4.6-.1-8.9.1-9.6.3z"/></svg>