<svg width="198" height="75" fill="none" xmlns="http://www.w3.org/2000/svg"><path d="M180.362 38.652v-2.166h16.834v2.166h-7.252v21.329h-2.363V38.652h-7.219ZM161.9 59.98h-2.363V36.487h8.761c2.363 0 4.222.613 5.579 1.838 1.378 1.203 2.067 2.855 2.067 4.955 0 1.684-.427 3.095-1.28 4.233-.831 1.137-2.001 1.914-3.511 2.33l5.021 10.139h-2.626l-4.79-9.746H161.9v9.746Zm0-21.36v9.482h6.464c1.619 0 2.877-.415 3.774-1.247.918-.853 1.378-2.023 1.378-3.51 0-1.51-.471-2.67-1.411-3.479-.919-.831-2.188-1.247-3.807-1.247H161.9Zm-25.809 21.36h-2.396l8.63-23.494h2.921l8.728 23.495h-2.461l-2.297-6.235h-10.828l-2.297 6.235Zm7.383-20.18-4.364 11.88h9.351l-4.397-11.88a1.607 1.607 0 0 0-.131-.328 6.571 6.571 0 0 0-.131-.36 1.404 1.404 0 0 1-.033-.263c-.044.24-.142.558-.295.952Zm-38.159 20.181V41.983h-6.12v-4.971h17.719v4.971h-6.12v17.998h-5.479Zm-31.713 0v-22.97h5.447v8.516h9.057v-8.515h5.447v22.97h-5.447v-9.484h-9.057v9.483h-5.447Zm-15.485.492c-1.772 0-3.44-.273-5.004-.82-1.564-.547-2.943-1.334-4.135-2.362a11.167 11.167 0 0 1-2.789-3.774c-.678-1.477-1.017-3.145-1.017-5.004 0-1.849.323-3.506.968-4.971a11.163 11.163 0 0 1 2.723-3.79 11.91 11.91 0 0 1 4.037-2.396c1.53-.558 3.177-.837 4.938-.837.81 0 1.657.066 2.543.197.886.12 1.788.34 2.707.657.919.317 1.821.765 2.707 1.345l-2.264 4.217a8.775 8.775 0 0 0-2.51-1.133 10.285 10.285 0 0 0-2.822-.377c-1.149 0-2.182.164-3.101.492-.919.328-1.7.804-2.346 1.428a6.137 6.137 0 0 0-1.46 2.231c-.34.875-.509 1.865-.509 2.97 0 1.586.34 2.915 1.017 3.986a6.485 6.485 0 0 0 2.757 2.412c1.159.536 2.455.804 3.888.804.569 0 1.11-.049 1.624-.147.514-.099.968-.214 1.362-.345v-4.069h-4.692v-4.331h9.466V58.57c-.689.394-1.51.733-2.46 1.017-.941.285-1.91.504-2.905.657-.984.153-1.892.23-2.723.23Zm-24.677-.492v-22.97h5.447v22.97H33.44Zm-20.691 0v-22.97h5.447V55.01h9.22v4.971H12.75Z" fill="#fff"/><path fill-rule="evenodd" clip-rule="evenodd" d="M146.852.288 119.241 75H.5V25.9L146.852.288ZM5.5 30.101V70h110.259l23.389-63.289L5.5 30.101Z" fill="#fff"/></svg>